<?xml version="1.0" encoding="UTF-8" standalone="no"?>
<!-- Created with Inkscape (http://www.inkscape.org/) -->

<svg
   xmlns:dc="http://purl.org/dc/elements/1.1/"
   xmlns:cc="http://creativecommons.org/ns#"
   xmlns:rdf="http://www.w3.org/1999/02/22-rdf-syntax-ns#"
   xmlns:svg="http://www.w3.org/2000/svg"
   xmlns="http://www.w3.org/2000/svg"
   xmlns:sodipodi="http://sodipodi.sourceforge.net/DTD/sodipodi-0.dtd"
   xmlns:inkscape="http://www.inkscape.org/namespaces/inkscape"
   version="1.1"
   id="svg192"
   width="504"
   height="504"
   viewBox="0 0 504 504"
   sodipodi:docname="roy red black.svg"
   inkscape:version="0.92.0 r">
  <metadata
     id="metadata198">
    <rdf:RDF>
      <cc:Work
         rdf:about="">
        <dc:format>image/svg+xml</dc:format>
        <dc:type
           rdf:resource="http://purl.org/dc/dcmitype/StillImage" />
        <dc:title></dc:title>
      </cc:Work>
    </rdf:RDF>
  </metadata>
  <defs
     id="defs196" />
  <sodipodi:namedview
     pagecolor="#ffffff"
     bordercolor="#666666"
     borderopacity="1"
     objecttolerance="10"
     gridtolerance="10"
     guidetolerance="10"
     inkscape:pageopacity="0"
     inkscape:pageshadow="2"
     inkscape:window-width="1280"
     inkscape:window-height="751"
     id="namedview194"
     showgrid="false"
     showguides="true"
     inkscape:guide-bbox="true"
     inkscape:zoom="1.0873016"
     inkscape:cx="252"
     inkscape:cy="252"
     inkscape:window-x="0"
     inkscape:window-y="1"
     inkscape:window-maximized="1"
     inkscape:current-layer="layer7">
    <sodipodi:guide
       position="18.324357,504"
       orientation="0,1"
       id="guide228"
       inkscape:locked="false" />
    <sodipodi:guide
       position="0,0"
       orientation="0,1"
       id="guide230"
       inkscape:locked="false" />
    <sodipodi:guide
       position="0,504"
       orientation="1,0"
       id="guide234"
       inkscape:locked="false" />
    <sodipodi:guide
       position="504.91971,504"
       orientation="1,0"
       id="guide236"
       inkscape:locked="false" />
  </sodipodi:namedview>
  <g
     inkscape:groupmode="layer"
     id="layer7"
     inkscape:label="bg">
    <rect
       style="fill:#ff0000"
       id="rect238"
       width="504.91971"
       height="504"
       x="0"
       y="0" />
  </g>
  <g
     inkscape:groupmode="layer"
     id="layer6"
     inkscape:label="face">
    <path
       style="fill:#000000"
       d="m 0,486.41667 c 0,-13.62089 0.28169065,-17.49 1.25,-17.16918 1.876118,0.62161 9.577625,10.67352 11.80472,15.40738 1.075087,2.28517 2.243615,7.57267 2.596728,11.75 L 16.293472,504 H 8.146736 0 Z M 60.660343,493.75 c -2.369236,-14.56962 -2.18505,-19.78103 0.915358,-25.89939 3.124801,-6.1665 27.58553,-31.60199 31.283464,-32.53011 3.624222,-0.90962 6.912865,3.48614 11.925425,15.94011 8.09353,20.10878 11.53152,32.34275 12.78343,45.48939 l 0.6904,7.25 H 90.292783 62.327145 Z M 2.174314,462.68555 C 0.33126377,460.72371 0,459.20018 0,452.68555 c 0,-10.86709 2.3593664,-10.20797 6.0328374,1.68534 2.9609778,9.58653 1.1012276,13.59407 -3.8585234,8.31466 z M 5.855128,432.81033 C 5.1512297,431.53965 3.5458675,428.31782 2.2876565,425.6507 L 0,420.80141 V 258.82927 C 0,130.55372 0.2600492,96.609256 1.25,95.665606 1.9375,95.010261 3.7375,93.68203 5.25,92.713982 7.5783983,91.223733 8,90.267535 8,86.476947 8,84.014626 7.5845264,82 7.0767253,82 c -0.5078011,0 -2.3078011,1.165002 -4,2.588894 L 0,87.177787 V 69.211338 C 0,54.82104 0.28569151,51.007787 1.4353038,50.053693 3.6568407,48.209981 8.8297275,34.958067 10.503116,26.823748 11.331768,22.795687 13.43054,15.1125 15.167056,9.75 L 18.324357,0 H 158.05859 297.79282 l 3.00782,3.4257205 c 4.09069,4.6590367 4.78214,8.5121925 2.61101,14.5499185 l -1.76318,4.903215 2.67864,6.310573 c 3.10619,7.317837 3.17021,7.948187 1.19511,11.767604 -0.81278,1.57174 -1.69363,5.486893 -1.95745,8.70034 -0.82166,10.008184 -6.4914,11.929283 -15.96674,5.410077 C 282.35737,51.461775 281.47365,51.368358 277.5,54 c -1.65,1.092752 -3.675,1.990008 -4.5,1.993902 -0.825,0.0039 -3.43747,2.256859 -5.80548,5.006589 C 263.28398,65.541393 262.49887,66 258.63565,66 c -9.69919,0 -9.95657,5.28504 -0.79987,16.424627 C 268.6708,95.605989 269,96.309463 269,106.28179 c 0,9.8003 -0.67113,11.68219 -6.8197,19.12281 -2.19086,2.65125 -4.52592,6.75818 -5.18901,9.12652 -1.11697,3.9894 -1.05512,6.00805 0.51992,16.96888 0.82403,5.73457 -2.07832,9.95465 -9.03747,13.14065 -5.96293,2.72992 -6.57198,4.14771 -3.47374,8.08648 3.05487,3.88363 2.81529,17.64381 -0.48723,27.98477 -2.8761,9.00573 -3.16721,15.47755 -0.93637,20.81672 1.32767,3.17755 1.39704,4.80287 0.43964,10.30065 -1.33274,7.65317 -2.19586,9.55065 -6.3322,13.92073 -2.24155,2.36822 -3.95743,3.25 -6.32424,3.25 -4.61535,0 -7.9183,3.4323 -10.31452,10.71845 -2.63195,8.00296 -2.5759,10.49211 0.31423,13.95482 5.03875,6.03702 5.95225,9.12133 5.32673,17.98497 -0.52626,7.45725 -0.40385,8.29655 1.28844,8.83366 3.05892,0.97086 9.18268,8.40434 8.83593,10.72572 -0.60813,4.07131 -2.88662,4.14682 -11.06464,0.36665 C 216.34692,307.23979 213,306.93765 213,310.43365 c 0,1.78403 -1.60159,3.69193 -6,7.14752 -3.3,2.59262 -6,4.96601 -6,5.27418 0,0.30818 1.64674,2.24674 3.65943,4.30792 3.08976,3.1642 3.45988,3.98805 2.37756,5.29216 -0.70504,0.84952 -2.29458,1.54457 -3.53232,1.54457 -3.01742,0 -11.33118,-3.72351 -14.8314,-6.64259 C 186.41313,325.47251 184.6757,325 180.00506,325 171.92839,325 171,325.50942 171,329.94121 c 0,2.74985 -1.08341,5.27384 -4.13158,9.62525 -3.86844,5.52238 -4.05222,6.09021 -2.88565,8.91578 2.47082,5.98458 2.32933,7.85002 -0.904,11.91864 -1.69332,2.13077 -3.07877,4.92159 -3.07877,6.20183 0,1.28023 -1.40477,3.92764 -3.1217,5.88312 l -3.12171,3.55543 2.73903,3.95242 c 4.38763,6.33136 3.21386,7.41611 -7.27042,6.71903 -4.79886,-0.31907 -11.6502,-1.50415 -15.2252,-2.63352 -9.0567,-2.86107 -10.39565,-2.67745 -15.62495,2.14275 -4.39735,4.05333 -4.96555,4.27074 -14.22766,5.44391 -9.353505,1.18475 -9.754009,1.34129 -13.14739,5.13876 -1.925,2.15423 -4.85,6.34197 -6.5,9.30609 -2.253841,4.04887 -4.10976,5.94892 -7.46189,7.6393 -5.163151,2.60363 -12.1866,2.94265 -16.317922,0.78768 C 57.28122,412.74384 50.039814,406.87222 44.370436,401.28064 42.017502,398.96 38.94659,396.77372 37.546187,396.42224 36.145784,396.07076 35,395.3566 35,394.83522 c 0,-0.52138 -1.396521,-2.22349 -3.103379,-3.78246 -1.706858,-1.55898 -3.619358,-3.85273 -4.25,-5.09723 C 25.584204,381.88557 21.958034,380.05414 17.5,380.83089 l -4,0.69694 -0.508047,12.57127 c -0.468466,11.59187 -0.721668,12.89408 -3.2499999,16.71465 -3.2842077,4.96277 -3.3440856,6.09936 -0.6893041,13.08421 1.128402,2.96888 1.915675,6.56503 1.749496,7.99145 -0.39335,3.37635 -3.2882896,3.91527 -4.947017,0.92092 z M 200.75,250.01096 c 1.7875,-1.08986 3.25,-2.43688 3.25,-2.99338 0,-1.56879 -6.8224,-8.7447 -10.43896,-10.97985 -2.08274,-1.28721 -4.43452,-4.34815 -6.56365,-8.54287 -3.03879,-5.9869 -3.30746,-7.25664 -3.19307,-15.09059 0.0984,-6.73687 0.56185,-9.26067 2.18212,-11.88233 2.96213,-4.79282 8.78726,-9.75105 15.9263,-13.55611 6.73795,-3.59129 9.08726,-6.7543 9.08726,-12.23467 0,-5.6645 2.77528,-13.13121 7.49895,-20.17544 2.47558,-3.69173 4.50105,-7.8093 4.50105,-9.15016 0,-2.56706 -1.44085,-3.45137 -11.23222,-6.8937 -2.88056,-1.01271 -6.35799,-3.36954 -8.88716,-6.02327 -5.42795,-5.69528 -8.34763,-6.8009 -16.71151,-6.3283 -6.01119,0.33966 -7.56584,0.86939 -12.47578,4.251 -5.33471,3.67416 -6.07457,3.88734 -15.13573,4.3613 -9.41741,0.49259 -9.55645,0.53712 -12.10297,3.87577 -3.5153,4.60881 -7.45463,13.77479 -7.45463,17.34536 0,1.81549 1.10877,4.19951 2.90415,6.24433 4.10409,4.6743 12.09585,20.60288 12.09585,24.10854 0,1.61578 -0.86287,5.9113 -1.91749,9.5456 -1.05461,3.63429 -2.23717,8.62687 -2.6279,11.0946 -0.39073,2.46773 -1.35708,6.29273 -2.14745,8.5 -2.26317,6.32036 -0.92768,14.13363 3.03749,17.77077 13.05846,11.97815 23.20165,17.97007 28.99527,17.12847 1.73804,-0.25248 4.51008,-0.0313 6.16008,0.49151 5.18694,1.64349 11.74433,1.27087 15.25,-0.86658 z m 32.29966,-29.53664 c 3.80398,-1.96711 3.76144,-4.61404 -0.12673,-7.88572 -4.18713,-3.52323 -7.45632,-4.18154 -11.4079,-2.29716 -3.85771,1.83961 -7.69963,6.79184 -6.62191,8.53563 1.68873,2.73242 13.91334,3.84149 18.15654,1.64725 z M 215.17126,120.34501 C 216.17707,119.43477 217,117.92046 217,116.97987 217,115.06552 213.34392,110 211.96222,110 210.44435,110 204,116.12825 204,117.57165 c 0,1.59065 4.63298,4.33021 7.42126,4.38831 1.05669,0.022 2.74419,-0.7047 3.75,-1.61495 z M 246.80782,116.25 c 0.483,-0.9625 0.61133,-2.65264 0.28518,-3.75586 -0.92951,-3.14412 -8.38935,-12.40166 -15.41438,-19.128993 -6.00857,-5.75395 -6.84354,-6.212985 -13.44795,-7.393261 -3.8729,-0.692124 -7.87166,-0.92691 -8.88615,-0.521746 -2.08122,0.831193 -0.70778,2.162872 11.62502,11.271603 3.55825,2.628041 8.18255,7.253257 10.27622,10.278257 5.89771,8.52121 8.55764,11 11.80382,11 1.74169,0 3.22716,-0.6917 3.75824,-1.75 z m 3.93524,135.15972 c -1.65593,-1.65592 -0.63655,-4.49972 1.96791,-5.48993 5.13313,-1.95161 9.53249,0.97341 5.94372,3.95183 -1.77222,1.47081 -6.96868,2.48106 -7.91163,1.5381 z M 299.5,189.37931 c -3.3,-0.81206 -7.05256,-1.69823 -8.33901,-1.96928 -3.37395,-0.71087 -11.95124,-9.68161 -14.27085,-14.92547 L 274.90641,168 l 2.09615,-4.75 c 1.15288,-2.6125 3.74026,-6.4375 5.74974,-8.5 3.09753,-3.17927 4.30451,-3.75 7.93041,-3.75 5.39129,0 10.95602,2.19267 19.67625,7.75303 8.75922,5.58522 13.62994,10.81355 13.63626,14.63744 0.01,6.02988 -6.98801,15.96808 -9.95341,14.13537 -0.62133,-0.384 -0.79339,-2.22718 -0.42372,-4.53898 C 314.48567,177.56133 313.43212,174 310.95951,174 309.00701,174 301,178.69569 301,179.84072 c 0,0.31623 1.63533,2.24968 3.63406,4.29657 2.309,2.36463 3.41431,4.29427 3.03139,5.29216 -0.70692,1.8422 -0.46944,1.84366 -8.16545,-0.0501 z m 28.10676,-34.47643 c -3.87257,-1.65204 -10.90837,-3.50447 -16.43282,-4.32653 -8.65913,-1.28851 -9.94654,-1.75743 -12.41734,-4.52273 -1.51613,-1.69685 -2.7566,-3.771 -2.7566,-4.60923 0,-3.07032 4.02863,-9.29896 7.33695,-11.34362 5.85623,-3.61935 17.17723,-2.27003 26.34692,3.14021 5.27333,3.11135 9.58746,14.55749 7.94833,21.08832 -0.91776,3.65666 -2.57597,3.75153 -10.02544,0.57358 z M 331.84894,16.755216 C 328.90702,13.320586 324.99398,8.9330855 323.1533,7.0052165 316.50185,0.03872253 316.53425,0 329.01584,0 h 11.08621 l 1.50841,3.6101278 c 1.16235,2.7818919 1.26535,4.3073575 0.44897,6.6492232 C 341.47675,11.930854 341,15.481296 341,18.149223 c 0,6.861662 -2.39178,6.497316 -9.15106,-1.394007 z"
       id="path221"
       inkscape:connector-curvature="0" />
  </g>
</svg>
